<svg id="e0a86a1b-7b61-4939-a3bf-c325272c8c3a" data-name="Layer 1" xmlns="http://www.w3.org/2000/svg" width="7.5cm" height="1.43cm" viewBox="0 0 212.52 40.59"><title>0_logo</title><g id="58e75c69-f2c1-4335-a880-f722b3297fa7" data-name="logo navbar"><g id="3035b70b-3cd5-4626-ad1f-f507d30cc5b0" data-name="typless"><path id="118bc147-2c21-462f-b813-c6b05db18b7c" data-name="&lt;Compound Path&gt;" d="M62.07,25.09H29.24a3.85,3.85,0,0,0-3.88,3.81v33a3.85,3.85,0,0,0,3.88,3.81H62.07A3.84,3.84,0,0,0,66,61.87v-33A3.84,3.84,0,0,0,62.07,25.09Z" transform="translate(-25.36 -25.09)" fill="#25a599"/><g id="08444998-6fe9-4132-ba64-17dff4c5e353" data-name="&lt;Group&gt;"><path id="897cc4b4-b625-4423-b871-6c1646d0b885" data-name="&lt;Compound Path&gt;" d="M56.4,60.56H34.91a4.44,4.44,0,0,1-4.42-4.43V34.64a4.43,4.43,0,0,1,4.42-4.42H56.4a4.43,4.43,0,0,1,4.43,4.42V56.13A4.44,4.44,0,0,1,56.4,60.56ZM34.91,31.9a2.74,2.74,0,0,0-2.73,2.74V56.13a2.74,2.74,0,0,0,2.73,2.74H56.4a2.74,2.74,0,0,0,2.74-2.74V34.64A2.74,2.74,0,0,0,56.4,31.9Z" transform="translate(-25.36 -25.09)" fill="#fff"/></g><g id="239698a3-c1dc-40d4-971e-3183a3f1d3fd" data-name="&lt;Group&gt;"><path id="cdcfb58c-88b7-4efa-819a-96e5da58be1e" data-name="&lt;Compound Path&gt;" d="M50.84,52.79a19.1,19.1,0,0,1-3.3.3c-1.85,0-3.11-.34-3.78-1s-1-1.92-1-3.77v-6H39.64v-1.7h3.12v-2.7H45v2.7h5.55v1.7H45v6.41a5.86,5.86,0,0,0,.13,1.47,1.37,1.37,0,0,0,.58.7,4.09,4.09,0,0,0,2.28.52,12.84,12.84,0,0,0,2.82-.32Z" transform="translate(-25.36 -25.09)" fill="#fff"/></g></g><g id="2f01c500-7f6c-4ea3-847c-b6cd9ddf03b1" data-name="typless"><path id="29543cb5-5a9f-4270-bedc-912937321d28" data-name="&lt;Compound Path&gt;" d="M116.83,57.53a35.12,35.12,0,0,1-6,.54c-3.38,0-5.68-.6-6.9-1.82s-1.83-3.5-1.83-6.88v-11H96.4V35.24h5.69V30.32h4.15v4.92h10.13v3.11H106.24V50a10,10,0,0,0,.24,2.69,2.52,2.52,0,0,0,1,1.28,7.53,7.53,0,0,0,4.17,1,22.34,22.34,0,0,0,5.14-.59Z" transform="translate(-25.36 -25.09)" fill="#58595b"/><path id="aca7dd97-ccaa-4a8a-8131-e2d341750fcc" data-name="&lt;Compound Path&gt;" d="M120.41,65.68v-3h1.65a6,6,0,0,0,3.35-.74,8.39,8.39,0,0,0,2.2-3.19l1-2.14-9.38-21.34h4.2l7.29,16.6,7.37-16.6h3.64L130.49,60.42a9.1,9.1,0,0,1-3.15,4.1,9.75,9.75,0,0,1-5.2,1.16Z" transform="translate(-25.36 -25.09)" fill="#58595b"/><path id="e6eae98d-6b14-4e4f-bd9b-a228acb8d189" data-name="&lt;Compound Path&gt;" d="M144.6,65.68V35.23h4v4.19q3-4.68,7.3-4.68a7.07,7.07,0,0,1,6,2.93q2.19,2.92,2.19,8a14.6,14.6,0,0,1-2.59,9,8.11,8.11,0,0,1-6.79,3.43,7.66,7.66,0,0,1-6.11-3V65.68Zm4-13.69q2.82,3,5.56,3a4.62,4.62,0,0,0,4.14-2.35,12.45,12.45,0,0,0,1.47-6.59q0-7.91-4.71-7.9-3.43,0-6.46,4.28Z" transform="translate(-25.36 -25.09)" fill="#58595b"/><path id="5e9c637b-5456-4c3e-9670-29d1274bc422" data-name="&lt;Compound Path&gt;" d="M169.88,57.56V28.14h-8.61V25.09h12.66V57.56Z" transform="translate(-25.36 -25.09)" fill="#58595b"/><path id="13861d7f-ba40-4b75-a007-3b91e7b16341" data-name="&lt;Compound Path&gt;" d="M199.34,56.65V53a21,21,0,0,0,8.14,2,7.62,7.62,0,0,0,4.08-1,2.92,2.92,0,0,0,1.61-2.52q0-1.95-3.84-3.18L205,46.91q-5.09-1.65-5.08-5.8a5.47,5.47,0,0,1,2.29-4.71,10.9,10.9,0,0,1,6.49-1.66,32.94,32.94,0,0,1,7.3,1V39a25.39,25.39,0,0,0-7.32-1.21,6.89,6.89,0,0,0-3.55.8,2.45,2.45,0,0,0-1.32,2.16c0,1.11,1,2,3,2.71l5.12,1.79a9.75,9.75,0,0,1,4,2.36,5.13,5.13,0,0,1,1.22,3.54,5.91,5.91,0,0,1-2.61,5,11.72,11.72,0,0,1-7,1.88A26.57,26.57,0,0,1,199.34,56.65Z" transform="translate(-25.36 -25.09)" fill="#58595b"/><path id="e0ac6170-d915-4930-bfa1-be576aec1126" data-name="&lt;Compound Path&gt;" d="M196.48,53a20.55,20.55,0,0,1-6.54,2h-.19l-.55,0a13.84,13.84,0,0,1-1.48-.09,11.81,11.81,0,0,1-2.41-.62l-.24-.11a6,6,0,0,1-.67-.32c-2-1.2-3.1-3.34-3.29-6.44h15.22V46.15q0-5.86-2.19-8.64c-1.46-1.85-3.74-2.77-6.82-2.77a9.64,9.64,0,0,0-7.56,3.35,12.4,12.4,0,0,0-3,8.55c0,3.67,1,6.5,3.1,8.47a8.72,8.72,0,0,0,1.41,1.07l0,0c.06,0,.14.07.2.12l.34.18a8.43,8.43,0,0,0,1.77.8l.13.05a12.75,12.75,0,0,0,2.15.5l.24,0a18.23,18.23,0,0,0,2.49.18h.14a24.52,24.52,0,0,0,7.73-1.4h0ZM183,39.53A5,5,0,0,1,187,37.78q5,0,5,6v.58H181.23A8.55,8.55,0,0,1,183,39.53Z" transform="translate(-25.36 -25.09)" fill="#58595b"/><path id="f5713aae-8c9f-4803-a766-a6c14d3a7288" data-name="&lt;Compound Path&gt;" d="M220,56.65V53a21.09,21.09,0,0,0,8.14,2,7.57,7.57,0,0,0,4.08-1,2.91,2.91,0,0,0,1.62-2.52q0-1.95-3.85-3.18l-4.33-1.42q-5.08-1.65-5.08-5.8a5.47,5.47,0,0,1,2.29-4.71,10.9,10.9,0,0,1,6.49-1.66,32.86,32.86,0,0,1,7.29,1V39a25.39,25.39,0,0,0-7.32-1.21,6.82,6.82,0,0,0-3.54.8,2.46,2.46,0,0,0-1.33,2.16c0,1.11,1,2,3,2.71l5.11,1.79a9.62,9.62,0,0,1,4,2.36,5.09,5.09,0,0,1,1.23,3.54,5.91,5.91,0,0,1-2.61,5,11.72,11.72,0,0,1-7,1.88A26.63,26.63,0,0,1,220,56.65Z" transform="translate(-25.36 -25.09)" fill="#58595b"/></g></g></svg>